<?xml version="1.0" standalone="no"?>
<!DOCTYPE 
<svg version="1.0" xmlns="http://www.w3.org/2000/svg"
 width="1024.000000pt" height="1024.000000pt" viewBox="0 0 1024.000000 1024.000000"
 preserveAspectRatio="xMidYMid meet">

<circle cx="512" cy="512" r="512" fill="white" />

<g transform="translate(0.000000,1024.000000) scale(0.100000,-0.100000)"
fill="#000000" stroke="none">
<path d="M2441 7799 c-137 -27 -248 -150 -267 -295 l-6 -52 -72 -6 c-123 -12
-403 -55 -468 -72 -82 -21 -130 -48 -154 -87 -16 -29 -18 -55 -19 -257 0 -195
2 -229 17 -257 23 -42 62 -71 112 -84 70 -18 122 -55 145 -101 19 -40 26 -80
66 -368 37 -267 117 -603 185 -776 39 -99 75 -156 140 -219 l50 -49 0 -387 c0
-219 4 -409 10 -440 13 -67 44 -133 87 -179 l32 -37 -59 -16 c-70 -20 -139
-79 -284 -247 -50 -57 -176 -197 -280 -310 -373 -404 -381 -416 -380 -555 0
-64 5 -90 24 -130 35 -71 96 -128 164 -154 l57 -21 3577 2 3577 3 42 23 c69
36 108 77 139 144 23 52 28 76 28 139 -1 134 -21 163 -421 601 -131 144 -266
293 -300 332 -83 94 -157 152 -218 172 -27 9 -51 18 -53 19 -1 1 14 20 34 41
90 98 94 122 94 604 l0 406 46 44 c90 89 153 227 224 495 57 217 86 388 120
699 17 165 55 223 168 261 64 21 117 64 131 108 11 31 15 171 12 374 -1 99 -2
103 -32 137 -18 21 -52 43 -82 54 -62 23 -238 55 -432 78 -77 9 -143 18 -146
20 -4 2 -9 25 -11 51 -11 103 -96 221 -196 270 l-57 28 -2650 1 c-1457 1
-2670 -2 -2694 -7z m2692 -120 c24 -11 47 -47 47 -73 0 -7 -9 -25 -21 -40 -16
-20 -29 -26 -58 -26 -72 0 -102 79 -47 127 30 26 44 28 79 12z m1041 -241
c-27 -4 -105 -14 -174 -23 -207 -28 -357 -61 -425 -94 -59 -29 -117 -82 -176
-160 l-25 -34 -88 17 c-121 24 -279 23 -379 -2 l-77 -19 -50 62 c-75 94 -156
142 -305 179 -77 19 -295 51 -450 67 -66 6 -121 12 -122 13 -1 0 521 1 1160 1
638 0 1139 -3 1111 -7z m-4288 -312 c43 -43 47 -100 10 -143 -21 -24 -32 -28
-75 -28 -42 0 -55 5 -78 28 -22 22 -28 37 -28 73 0 39 5 50 33 75 46 42 93 40
138 -5z m6541 14 c21 -13 36 -32 44 -59 10 -34 9 -44 -8 -73 -10 -18 -30 -39
-44 -45 -90 -46 -190 47 -145 135 32 62 93 79 153 42z m-4662 -55 c267 -26
501 -68 570 -102 54 -27 105 -85 121 -138 22 -72 29 -305 15 -465 -29 -319
-120 -671 -211 -813 -66 -104 -193 -149 -545 -193 -240 -30 -750 -28 -882 3
-55 13 -246 688 -312 1103 -25 156 -61 470 -61 531 l0 45 98 12 c53 6 156 16
227 22 72 6 148 12 170 14 89 9 660 -5 810 -19z m3540 14 c184 -13 429 -40
439 -49 11 -11 -9 -236 -40 -440 -56 -365 -128 -665 -241 -1001 l-76 -227 -86
-12 c-152 -21 -505 -24 -721 -6 -461 38 -596 89 -678 252 -75 151 -145 436
-172 707 -17 160 -9 489 12 538 42 97 112 137 302 174 125 24 140 26 316 46
234 26 695 34 945 18z m-2090 -598 c23 -10 53 -32 67 -50 29 -34 31 -41 48
-201 25 -235 121 -596 206 -778 137 -294 281 -396 630 -446 295 -42 375 -48
714 -53 190 -2 344 -8 343 -11 -7 -26 -284 -511 -320 -559 l-24 -33 -1778 0
-1779 0 -54 83 c-30 45 -103 172 -162 282 -60 110 -112 204 -117 210 -5 5 -9
12 -9 16 0 4 150 9 333 12 345 5 500 18 762 68 260 49 394 126 507 291 130
192 252 615 293 1019 7 62 31 109 71 135 68 45 185 51 269 15z m2463 -2522
c12 -7 22 -16 22 -21 0 -4 -114 -8 -254 -8 -212 0 -257 -3 -269 -15 -21 -21
-10 -54 27 -76 28 -17 54 -19 311 -19 245 0 323 -6 305 -23 -3 -3 -121 -7
-263 -10 -171 -4 -263 -9 -272 -17 -22 -18 0 -66 40 -84 28 -13 78 -16 310
-16 265 0 315 -5 315 -30 0 -6 -105 -10 -274 -10 -236 0 -275 -2 -286 -16 -21
-24 -1 -66 40 -86 31 -16 69 -18 323 -18 l288 0 42 -40 c33 -31 39 -42 28 -49
-8 -5 -75 -10 -149 -10 -75 -1 -139 -4 -144 -7 -14 -9 -9 -30 13 -58 l20 -26
169 0 c171 0 198 -6 169 -36 -12 -11 -486 -14 -3087 -15 -3197 -2 -3102 -3
-3102 37 0 11 32 14 168 14 l168 0 29 30 c27 28 28 31 12 47 -14 14 -41 17
-149 20 -73 1 -134 6 -136 11 -1 5 15 25 38 46 l40 36 289 0 289 0 32 30 c23
22 31 36 28 57 l-3 28 -272 3 c-267 2 -311 8 -247 32 14 6 145 10 299 10 l273
0 32 26 c39 33 39 74 0 85 -14 4 -133 8 -265 8 -213 1 -238 3 -221 16 16 12
67 15 286 15 262 0 268 0 301 23 36 24 50 64 27 78 -7 5 -125 9 -263 9 -237 0
-248 1 -232 18 15 14 44 18 200 22 100 3 1251 4 2557 3 1816 -2 2380 -5 2398
-14z m-1623 -842 c48 -19 74 -41 95 -83 35 -68 18 -139 -40 -169 -43 -22
-1966 -23 -2010 0 -105 54 -87 186 35 249 27 14 136 16 960 15 686 0 938 -4
960 -12z"/>
<path d="M3609 6722 c-207 -55 -341 -264 -310 -487 19 -130 115 -260 238 -318
64 -30 75 -32 178 -32 103 0 114 2 177 32 164 77 261 252 244 438 -17 178
-158 336 -334 374 -71 15 -114 13 -193 -7z m279 -137 c44 -44 44 -46 40 -97
-5 -44 -11 -57 -39 -80 -48 -40 -93 -46 -145 -18 -68 36 -90 99 -57 167 21 44
67 73 117 73 33 0 46 -7 84 -45z"/>
<path d="M6364 6721 c-82 -23 -140 -59 -198 -120 -59 -64 -94 -138 -105 -227
-18 -145 19 -264 114 -363 94 -99 196 -138 332 -128 273 21 452 305 359 570
-29 82 -71 138 -148 200 -102 81 -226 105 -354 68z m254 -110 c45 -23 67 -60
66 -112 -2 -46 -24 -83 -67 -110 -96 -60 -226 51 -186 158 29 74 111 103 187
64z"/>
<path d="M4722 5109 c-36 -11 -72 -59 -72 -97 0 -63 86 -159 184 -207 154 -74
380 -74 528 1 57 29 143 105 164 146 32 62 10 128 -53 154 -46 20 -67 11 -135
-52 -72 -66 -143 -94 -237 -94 -92 0 -160 22 -221 73 -68 55 -112 87 -119 86
-3 0 -21 -5 -39 -10z"/>
<path d="M3155 3913 c-14 -16 -24 -37 -23 -48 3 -19 12 -20 194 -23 182 -2
192 -1 218 19 19 15 26 29 24 48 l-3 26 -192 3 -192 2 -26 -27z"/>
<path d="M3706 3909 c-52 -62 -35 -69 166 -69 155 0 170 2 188 20 24 24 26 65
4 74 -9 3 -87 6 -174 6 l-158 0 -26 -31z"/>
<path d="M4210 3920 c-24 -24 -26 -65 -4 -74 9 -3 137 -6 285 -6 l269 0 16 25
c15 23 15 27 0 50 l-16 25 -265 0 c-252 0 -266 -1 -285 -20z"/>
<path d="M4904 3915 c-14 -21 -15 -31 -6 -50 12 -25 12 -25 165 -25 161 0 177
4 177 45 0 47 -26 55 -178 55 -141 0 -142 0 -158 -25z"/>
<path d="M5356 3924 c-20 -19 -20 -34 0 -62 15 -22 16 -22 318 -22 221 0 305
3 314 12 18 18 15 53 -6 71 -16 15 -53 17 -315 17 -255 0 -298 -2 -311 -16z"/>
<path d="M6120 3925 c-18 -21 -5 -60 25 -73 36 -17 367 -16 383 0 17 17 15 22
-14 57 l-26 31 -178 0 c-145 0 -180 -3 -190 -15z"/>
<path d="M6666 3924 c-22 -21 -20 -31 9 -60 l25 -24 182 2 183 3 3 23 c2 15
-5 33 -19 48 -22 24 -26 24 -195 24 -144 0 -175 -3 -188 -16z"/>
<path d="M3049 3769 c-16 -17 -29 -36 -29 -43 0 -32 24 -36 226 -36 201 0 201
0 228 25 20 18 26 33 24 53 l-3 27 -208 3 -209 2 -29 -31z"/>
<path d="M3626 3769 c-14 -17 -26 -36 -26 -43 0 -32 24 -36 201 -36 163 0 178
2 203 21 27 22 34 57 14 77 -8 8 -65 12 -189 12 l-177 0 -26 -31z"/>
<path d="M4160 3780 c-24 -24 -27 -75 -4 -84 9 -3 143 -6 298 -6 261 0 284 1
299 18 23 25 22 69 -2 82 -12 6 -124 10 -295 10 -263 0 -277 -1 -296 -20z"/>
<path d="M4890 3780 c-24 -24 -26 -53 -4 -74 13 -13 44 -16 178 -16 174 0 186
3 186 50 0 53 -22 60 -188 60 -139 0 -154 -2 -172 -20z"/>
<path d="M5372 3788 c-20 -20 -14 -65 10 -82 19 -14 68 -16 329 -16 291 0 307
1 324 20 17 18 17 21 -2 52 l-19 33 -315 3 c-236 2 -318 -1 -327 -10z"/>
<path d="M6173 3792 c-23 -15 -20 -55 7 -82 19 -19 33 -20 213 -20 199 0 217
3 217 41 0 10 -14 29 -31 43 -30 26 -31 26 -212 26 -100 0 -187 -4 -194 -8z"/>
<path d="M6722 3783 c-12 -22 -1 -52 25 -76 18 -16 40 -17 213 -15 173 3 194
5 204 21 9 15 5 24 -26 53 l-38 34 -185 0 c-165 0 -185 -2 -193 -17z"/>
<path d="M2961 3625 c-36 -31 -47 -61 -31 -80 10 -12 49 -15 206 -15 106 0
204 4 218 10 35 13 60 54 52 85 l-6 25 -204 0 c-204 0 -204 0 -235 -25z"/>
<path d="M3547 3624 c-33 -33 -42 -61 -27 -79 10 -12 50 -15 217 -15 203 0
204 0 228 25 27 26 32 64 13 83 -9 9 -69 12 -209 12 l-196 0 -26 -26z"/>
<path d="M4115 3625 c-30 -29 -33 -70 -6 -85 12 -6 128 -10 306 -10 l286 0 24
25 c29 28 31 42 9 73 -15 22 -17 22 -305 22 l-290 0 -24 -25z"/>
<path d="M4870 3630 c-24 -24 -26 -63 -4 -84 13 -13 45 -16 193 -16 164 0 179
2 196 20 12 14 15 27 10 47 -13 52 -15 53 -201 53 -161 0 -176 -2 -194 -20z"/>
<path d="M5387 3632 c-22 -25 -21 -44 4 -76 l20 -26 323 0 c300 0 324 1 339
18 23 25 21 35 -9 71 l-26 31 -317 0 c-295 0 -319 -1 -334 -18z"/>
<path d="M6212 3638 c-21 -21 -14 -65 14 -87 25 -20 39 -21 228 -21 144 0 205
3 214 12 20 20 14 48 -17 79 l-29 29 -199 0 c-141 0 -202 -3 -211 -12z"/>
<path d="M6812 3638 c-19 -19 -14 -57 13 -83 24 -25 25 -25 228 -25 167 0 207
3 217 15 16 19 5 49 -31 80 -30 25 -31 25 -223 25 -136 0 -195 -3 -204 -12z"/>
<path d="M4150 3493 c-39 -3 -62 -11 -78 -25 -28 -27 -45 -84 -31 -109 9 -18
46 -19 1042 -19 790 0 1036 3 1045 12 19 19 14 62 -11 99 -23 34 -23 34 -122
40 -105 7 -1750 8 -1845 2z"/>
<path d="M6283 3490 c-16 -7 -23 -18 -23 -38 0 -42 19 -91 40 -102 11 -6 116
-10 244 -10 l226 0 6 24 c7 28 -14 71 -50 105 -26 24 -30 25 -224 27 -108 2
-207 -1 -219 -6z"/>
<path d="M3462 3465 c-32 -40 -47 -85 -35 -104 9 -14 39 -16 228 -19 191 -2
220 0 236 14 24 22 42 79 35 110 l-6 24 -219 0 -220 0 -19 -25z"/>
<path d="M2456 3390 c-41 -49 -28 -60 76 -60 86 0 91 1 119 29 48 49 33 61
-76 61 -91 0 -94 -1 -119 -30z"/>
<path d="M2792 3414 c-7 -3 -19 -18 -27 -33 -20 -40 -4 -51 77 -51 55 0 72 4
89 21 11 11 19 30 17 42 -3 20 -9 22 -73 24 -38 1 -76 -1 -83 -3z"/>
<path d="M3066 3405 c-24 -24 -38 -54 -31 -65 3 -6 43 -10 89 -10 92 0 121 16
114 62 -3 21 -8 23 -79 26 -60 2 -80 -1 -93 -13z"/>
<path d="M6951 3402 c-10 -18 2 -50 23 -64 6 -4 45 -8 87 -8 105 0 124 24 60
78 -9 7 -44 12 -88 12 -59 0 -74 -3 -82 -18z"/>
<path d="M7237 3413 c-13 -13 -7 -43 13 -63 16 -16 33 -20 84 -20 35 0 71 3
80 6 23 9 20 37 -7 62 -19 18 -35 22 -93 22 -39 0 -74 -3 -77 -7z"/>
<path d="M7513 3404 c-3 -8 3 -28 14 -42 19 -26 24 -27 119 -27 110 0 123 9
84 58 -21 26 -25 27 -116 27 -77 0 -96 -3 -101 -16z"/>
</g>
</svg>
